<svg width="24" height="25" viewBox="0 0 24 25" fill="none" xmlns="http://www.w3.org/2000/svg">
<mask id="mask0_992_2283" style="mask-type:alpha" maskUnits="userSpaceOnUse" x="0" y="0" width="24" height="25">
<rect y="0.5" width="24" height="24" fill="#D9D9D9"/>
</mask>
<g mask="url(#mask0_992_2283)">
<path d="M8.7 13.425L10.075 14.35L12 13.375L13.925 14.35L15.25 13.475L14.25 11.5H9.65L8.7 13.425ZM5.225 20.5H18.75L16.15 15.275L14.075 16.65L12 15.625L9.925 16.65L7.8 15.25L5.225 20.5ZM2 22.5L7.85 10.625C8.01667 10.2917 8.2625 10.0208 8.5875 9.8125C8.9125 9.60417 9.26667 9.5 9.65 9.5H11V2.5H18L17 4.5L18 6.5H13V9.5H14.25C14.6333 9.5 14.9833 9.6 15.3 9.8C15.6167 10 15.8667 10.2667 16.05 10.6L22 22.5H2Z" fill="#1431C1"/>
</g>
</svg>
