<svg width="36" height="36" viewBox="0 0 36 36" fill="none" xmlns="http://www.w3.org/2000/svg">
<rect width="36" height="36" rx="18" fill="#06145D"/>
<mask id="mask0_992_2039" style="mask-type:alpha" maskUnits="userSpaceOnUse" x="6" y="6" width="24" height="24">
<rect x="6" y="6" width="24" height="24" fill="#D9D9D9"/>
</mask>
<g mask="url(#mask0_992_2039)">
<path d="M15 27H11C10.45 27 9.97917 26.8042 9.5875 26.4125C9.19583 26.0208 9 25.55 9 25V18C9 16.75 9.2375 15.5792 9.7125 14.4875C10.1875 13.3958 10.8292 12.4458 11.6375 11.6375C12.4458 10.8292 13.3958 10.1875 14.4875 9.7125C15.5792 9.2375 16.75 9 18 9C19.25 9 20.4208 9.2375 21.5125 9.7125C22.6042 10.1875 23.5542 10.8292 24.3625 11.6375C25.1708 12.4458 25.8125 13.3958 26.2875 14.4875C26.7625 15.5792 27 16.75 27 18V25C27 25.55 26.8042 26.0208 26.4125 26.4125C26.0208 26.8042 25.55 27 25 27H21V19H25V18C25 16.05 24.3208 14.3958 22.9625 13.0375C21.6042 11.6792 19.95 11 18 11C16.05 11 14.3958 11.6792 13.0375 13.0375C11.6792 14.3958 11 16.05 11 18V19H15V27ZM13 21H11V25H13V21ZM23 21V25H25V21H23Z" fill="white"/>
</g>
</svg>
