<svg width="32" height="33" viewBox="0 0 32 33" fill="none" xmlns="http://www.w3.org/2000/svg">
<path d="M25.3333 4.5H6.66667C5.19333 4.5 4 5.69333 4 7.16667V25.8333C4 27.3067 5.19333 28.5 6.66667 28.5H25.3333C26.8067 28.5 28 27.3067 28 25.8333V7.16667C28 5.69333 26.8067 4.5 25.3333 4.5ZM10.3173 23.1667C9.388 23.1667 8.63467 22.4133 8.63467 21.484V15.5147C8.636 14.5867 9.38933 13.8333 10.3173 13.8333C11.2467 13.8333 12 14.5867 12 15.516V21.4853C12 22.4133 11.2467 23.1667 10.3173 23.1667ZM10.2587 12.1227C9.23067 12.1227 8.544 11.4373 8.544 10.5227C8.544 9.608 9.22933 8.92267 10.372 8.92267C11.4 8.92267 12.0867 9.608 12.0867 10.5227C12.0867 11.4373 11.4013 12.1227 10.2587 12.1227ZM22.372 23.1667C21.4733 23.1667 20.744 22.4373 20.744 21.5387V18.0653C20.744 16.6547 19.876 16.5 19.5507 16.5C19.2253 16.5 18.14 16.5467 18.14 18.0653V21.5387C18.14 22.4373 17.4107 23.1667 16.512 23.1667H16.404C15.5053 23.1667 14.776 22.4373 14.776 21.5387V15.516C14.776 14.5867 15.5293 13.8333 16.4587 13.8333C17.388 13.8333 18.1413 14.5867 18.1413 15.516C18.1413 15.516 18.5173 13.8333 21.072 13.8333C22.6973 13.8333 24 15.136 24 18.0653V21.5387C24 22.4373 23.2707 23.1667 22.372 23.1667Z" fill="#06145D"/>
</svg>
