<svg width="24" height="25" viewBox="0 0 24 25" fill="none" xmlns="http://www.w3.org/2000/svg">
<mask id="mask0_992_2286" style="mask-type:alpha" maskUnits="userSpaceOnUse" x="0" y="0" width="24" height="25">
<rect y="0.5" width="24" height="24" fill="#D9D9D9"/>
</mask>
<g mask="url(#mask0_992_2286)">
<path d="M19 21.5C18.35 21.5 17.7667 21.3125 17.25 20.9375C16.7333 20.5625 16.375 20.0833 16.175 19.5H11C9.9 19.5 8.95833 19.1083 8.175 18.325C7.39167 17.5417 7 16.6 7 15.5C7 14.4 7.39167 13.4583 8.175 12.675C8.95833 11.8917 9.9 11.5 11 11.5H13C13.55 11.5 14.0208 11.3042 14.4125 10.9125C14.8042 10.5208 15 10.05 15 9.5C15 8.95 14.8042 8.47917 14.4125 8.0875C14.0208 7.69583 13.55 7.5 13 7.5H7.825C7.60833 8.08333 7.24583 8.5625 6.7375 8.9375C6.22917 9.3125 5.65 9.5 5 9.5C4.16667 9.5 3.45833 9.20833 2.875 8.625C2.29167 8.04167 2 7.33333 2 6.5C2 5.66667 2.29167 4.95833 2.875 4.375C3.45833 3.79167 4.16667 3.5 5 3.5C5.65 3.5 6.22917 3.6875 6.7375 4.0625C7.24583 4.4375 7.60833 4.91667 7.825 5.5H13C14.1 5.5 15.0417 5.89167 15.825 6.675C16.6083 7.45833 17 8.4 17 9.5C17 10.6 16.6083 11.5417 15.825 12.325C15.0417 13.1083 14.1 13.5 13 13.5H11C10.45 13.5 9.97917 13.6958 9.5875 14.0875C9.19583 14.4792 9 14.95 9 15.5C9 16.05 9.19583 16.5208 9.5875 16.9125C9.97917 17.3042 10.45 17.5 11 17.5H16.175C16.3917 16.9167 16.7542 16.4375 17.2625 16.0625C17.7708 15.6875 18.35 15.5 19 15.5C19.8333 15.5 20.5417 15.7917 21.125 16.375C21.7083 16.9583 22 17.6667 22 18.5C22 19.3333 21.7083 20.0417 21.125 20.625C20.5417 21.2083 19.8333 21.5 19 21.5ZM5 7.5C5.28333 7.5 5.52083 7.40417 5.7125 7.2125C5.90417 7.02083 6 6.78333 6 6.5C6 6.21667 5.90417 5.97917 5.7125 5.7875C5.52083 5.59583 5.28333 5.5 5 5.5C4.71667 5.5 4.47917 5.59583 4.2875 5.7875C4.09583 5.97917 4 6.21667 4 6.5C4 6.78333 4.09583 7.02083 4.2875 7.2125C4.47917 7.40417 4.71667 7.5 5 7.5Z" fill="#1431C1"/>
</g>
</svg>
