<svg width="24" height="25" viewBox="0 0 24 25" fill="none" xmlns="http://www.w3.org/2000/svg">
<mask id="mask0_992_2303" style="mask-type:alpha" maskUnits="userSpaceOnUse" x="0" y="0" width="24" height="25">
<rect y="0.5" width="24" height="24" fill="#D9D9D9"/>
</mask>
<g mask="url(#mask0_992_2303)">
<path d="M5.15 19.35C4.46667 18.55 3.9375 17.6542 3.5625 16.6625C3.1875 15.6708 3 14.6167 3 13.5C3 11 3.875 8.875 5.625 7.125C7.375 5.375 9.5 4.5 12 4.5H12.2L10.6 2.9L12 1.5L16 5.5L12 9.5L10.575 8.075L12.15 6.5H12C10.0667 6.5 8.41667 7.18333 7.05 8.55C5.68333 9.91667 5 11.5667 5 13.5C5 14.35 5.1375 15.15 5.4125 15.9C5.6875 16.65 6.075 17.325 6.575 17.925L5.15 19.35ZM11 19C11 18.6167 10.8708 18.2375 10.6125 17.8625C10.3542 17.4875 10.0667 17.0958 9.75 16.6875C9.43333 16.2792 9.14583 15.8542 8.8875 15.4125C8.62917 14.9708 8.5 14.5 8.5 14C8.5 13.0333 8.84167 12.2083 9.525 11.525C10.2083 10.8417 11.0333 10.5 12 10.5C12.9667 10.5 13.7917 10.8417 14.475 11.525C15.1583 12.2083 15.5 13.0333 15.5 14C15.5 14.5 15.3708 14.9708 15.1125 15.4125C14.8542 15.8542 14.5667 16.2792 14.25 16.6875C13.9333 17.0958 13.6458 17.4875 13.3875 17.8625C13.1292 18.2375 13 18.6167 13 19H11ZM11 21.5V20H13V21.5H11ZM18.85 19.35L17.425 17.925C17.925 17.325 18.3125 16.65 18.5875 15.9C18.8625 15.15 19 14.35 19 13.5C19 12.4 18.7708 11.3792 18.3125 10.4375C17.8542 9.49583 17.225 8.70833 16.425 8.075L17.85 6.65C18.8167 7.48333 19.5833 8.4875 20.15 9.6625C20.7167 10.8375 21 12.1167 21 13.5C21 14.6167 20.8125 15.6708 20.4375 16.6625C20.0625 17.6542 19.5333 18.55 18.85 19.35Z" fill="#1431C1"/>
</g>
</svg>
