<svg width="24" height="25" viewBox="0 0 24 25" fill="none" xmlns="http://www.w3.org/2000/svg">
<mask id="mask0_992_2313" style="mask-type:alpha" maskUnits="userSpaceOnUse" x="0" y="0" width="24" height="25">
<rect y="0.5" width="24" height="24" fill="#D9D9D9"/>
</mask>
<g mask="url(#mask0_992_2313)">
<path d="M12.05 22.5C11.2167 22.5 10.5083 22.2083 9.925 21.625C9.34167 21.0417 9.05 20.3333 9.05 19.5C9.05 18.8667 9.23333 18.2958 9.6 17.7875C9.96667 17.2792 10.4333 16.9167 11 16.7V10.3L7.575 14.45C7.70833 14.6833 7.8125 14.9292 7.8875 15.1875C7.9625 15.4458 8 15.7167 8 16C8 16.8333 7.70833 17.5417 7.125 18.125C6.54167 18.7083 5.83333 19 5 19C4.16667 19 3.45833 18.7083 2.875 18.125C2.29167 17.5417 2 16.8333 2 16C2 15.1667 2.29167 14.4583 2.875 13.875C3.45833 13.2917 4.16667 13 5 13C5.18333 13 5.35833 13.0125 5.525 13.0375C5.69167 13.0625 5.85833 13.1083 6.025 13.175L10.325 7.975C9.925 7.69167 9.60417 7.3375 9.3625 6.9125C9.12083 6.4875 9 6.01667 9 5.5C9 4.66667 9.29167 3.95833 9.875 3.375C10.4583 2.79167 11.1667 2.5 12 2.5C12.8333 2.5 13.5417 2.79167 14.125 3.375C14.7083 3.95833 15 4.66667 15 5.5C15 6.01667 14.8792 6.4875 14.6375 6.9125C14.3958 7.3375 14.075 7.69167 13.675 7.975L17.975 13.175C18.1417 13.1083 18.3083 13.0625 18.475 13.0375C18.6417 13.0125 18.8167 13 19 13C19.8333 13 20.5417 13.2917 21.125 13.875C21.7083 14.4583 22 15.1667 22 16C22 16.8333 21.7083 17.5417 21.125 18.125C20.5417 18.7083 19.8333 19 19 19C18.1667 19 17.4583 18.7083 16.875 18.125C16.2917 17.5417 16 16.8333 16 16C16 15.7167 16.0375 15.4458 16.1125 15.1875C16.1875 14.9292 16.2917 14.6833 16.425 14.45L13 10.3V16.65C13.6 16.85 14.0917 17.2083 14.475 17.725C14.8583 18.2417 15.05 18.8333 15.05 19.5C15.05 20.3333 14.7583 21.0417 14.175 21.625C13.5917 22.2083 12.8833 22.5 12.05 22.5ZM12.05 20.5C12.3333 20.5 12.5708 20.4042 12.7625 20.2125C12.9542 20.0208 13.05 19.7833 13.05 19.5C13.05 19.2167 12.9542 18.9792 12.7625 18.7875C12.5708 18.5958 12.3333 18.5 12.05 18.5C11.7667 18.5 11.5292 18.5958 11.3375 18.7875C11.1458 18.9792 11.05 19.2167 11.05 19.5C11.05 19.7833 11.1458 20.0208 11.3375 20.2125C11.5292 20.4042 11.7667 20.5 12.05 20.5ZM5 17C5.28333 17 5.52083 16.9042 5.7125 16.7125C5.90417 16.5208 6 16.2833 6 16C6 15.7167 5.90417 15.4792 5.7125 15.2875C5.52083 15.0958 5.28333 15 5 15C4.71667 15 4.47917 15.0958 4.2875 15.2875C4.09583 15.4792 4 15.7167 4 16C4 16.2833 4.09583 16.5208 4.2875 16.7125C4.47917 16.9042 4.71667 17 5 17ZM19 17C19.2833 17 19.5208 16.9042 19.7125 16.7125C19.9042 16.5208 20 16.2833 20 16C20 15.7167 19.9042 15.4792 19.7125 15.2875C19.5208 15.0958 19.2833 15 19 15C18.7167 15 18.4792 15.0958 18.2875 15.2875C18.0958 15.4792 18 15.7167 18 16C18 16.2833 18.0958 16.5208 18.2875 16.7125C18.4792 16.9042 18.7167 17 19 17ZM12 6.5C12.2833 6.5 12.5208 6.40417 12.7125 6.2125C12.9042 6.02083 13 5.78333 13 5.5C13 5.21667 12.9042 4.97917 12.7125 4.7875C12.5208 4.59583 12.2833 4.5 12 4.5C11.7167 4.5 11.4792 4.59583 11.2875 4.7875C11.0958 4.97917 11 5.21667 11 5.5C11 5.78333 11.0958 6.02083 11.2875 6.2125C11.4792 6.40417 11.7167 6.5 12 6.5Z" fill="#1431C1"/>
</g>
</svg>
