<svg width="24" height="25" viewBox="0 0 24 25" fill="none" xmlns="http://www.w3.org/2000/svg">
<mask id="mask0_992_2310" style="mask-type:alpha" maskUnits="userSpaceOnUse" x="0" y="0" width="24" height="25">
<rect y="0.5" width="24" height="24" fill="#D9D9D9"/>
</mask>
<g mask="url(#mask0_992_2310)">
<path d="M5 16.675C5.16667 16.625 5.32917 16.5833 5.4875 16.55C5.64583 16.5167 5.81667 16.5 6 16.5H7V4.5H6C5.71667 4.5 5.47917 4.59583 5.2875 4.7875C5.09583 4.97917 5 5.21667 5 5.5V16.675ZM6 22.5C5.16667 22.5 4.45833 22.2083 3.875 21.625C3.29167 21.0417 3 20.3333 3 19.5V5.5C3 4.66667 3.29167 3.95833 3.875 3.375C4.45833 2.79167 5.16667 2.5 6 2.5H13V4.5H9V16.5H15V13.5H17V18.5H6C5.71667 18.5 5.47917 18.5958 5.2875 18.7875C5.09583 18.9792 5 19.2167 5 19.5C5 19.7833 5.09583 20.0208 5.2875 20.2125C5.47917 20.4042 5.71667 20.5 6 20.5H19V12.5H21V22.5H6ZM17.5 12.5C17.5 10.9667 18.0333 9.66667 19.1 8.6C20.1667 7.53333 21.4667 7 23 7C21.4667 7 20.1667 6.46667 19.1 5.4C18.0333 4.33333 17.5 3.03333 17.5 1.5C17.5 3.03333 16.9667 4.33333 15.9 5.4C14.8333 6.46667 13.5333 7 12 7C13.5333 7 14.8333 7.53333 15.9 8.6C16.9667 9.66667 17.5 10.9667 17.5 12.5Z" fill="#1431C1"/>
</g>
</svg>
